<!-- Generator: Adobe Illustrator 19.2.1, SVG Export Plug-In  -->
<svg version="1.1"
	 xmlns="http://www.w3.org/2000/svg" xmlns:xlink="http://www.w3.org/1999/xlink" xmlns:a="http://ns.adobe.com/AdobeSVGViewerExtensions/3.0/"
	 x="0px" y="0px" width="437.6px" height="240.1px" viewBox="0 0 437.6 240.1" style="enable-background:new 0 0 437.6 240.1;"
	 xml:space="preserve">
<style type="text/css">
	.st0{fill-rule:evenodd;clip-rule:evenodd;fill:#FFFFFF;}
	.st1{fill:#FFFFFF;}
</style>
<defs>
</defs>
<path class="st0" d="M243.7,164.2c-5.2-16.6-12.8-53.9,20.1-77c23.5-16.5,94.9-36,133.1-50L424.3,0c-26.2,13.4-60.2,27.2-91.3,36.7
	c-69.1,21.2-110.5,33.8-163.8,34.8c-38.3,0.7-38.5-17.3-2.7-48.7c0.7-0.6,0.5-0.8-0.3-0.5c-47,18-100.9,35.1-166.3,50
	c60,1.7,105.5,13.9,132.9,29.8c39,22.6,48.4,46.4,52.8,62.1H243.7 M171.5,95.4c18.7,0.7,33.1-0.8,59.2-6.5
	c-12.3,9.2-23.2,25.9-24.4,38.7C199.8,117.8,184.7,102.8,171.5,95.4z"/>
<path class="st1" d="M426,236.8h1.7v-3.9l2,0c0.5,0,1.4,0.7,1.5,1.6c0.1,0.6,0,2.3,0.3,2.3h1.8c-0.3-0.1-0.5-1.6-0.6-2.8
	c-0.1-1.5-1.2-1.9-1.4-2c0.3,0,1.9-0.8,1.9-2.2c0-1.5-1.3-2.8-2.9-2.8v0H426V236.8 M427.8,228.5h2.1c0.9,0,1.5,0.8,1.5,1.4
	c0,0.6-0.5,1.5-1.5,1.5v0l-2.1,0V228.5z"/>
<path class="st1" d="M421.4,231.9c0,4.5,3.6,8.1,8.1,8.1c4.5,0,8.1-3.6,8.1-8.1c0-4.5-3.6-8.1-8.1-8.1
	C425,223.8,421.4,227.4,421.4,231.9 M436.8,231.9c0,4-3.3,7.3-7.3,7.3c-4,0-7.3-3.3-7.3-7.3c0-4,3.3-7.3,7.3-7.3
	C433.6,224.6,436.8,227.9,436.8,231.9z"/>
<path class="st1" d="M234.9,201.1c1.7-2,2.6-4.6,2.6-7.3v-10.1h-51.8v11.3h28.6l-25.1,27.7c-1.7,2-2.8,4.4-2.8,7.2v10.3h51.8v-11.3
	h-28.4L234.9,201.1"/>
<path class="st1" d="M365,183.6c-6.2,0-11.4,5.1-11.4,11.3v33.8c0,6.2,5.1,11.3,11.4,11.3h40.3c6.2,0,11.2-5.1,11.2-11.3v-33.8
	c0-6.2-5-11.3-11.2-11.3H365 M389.4,194.9c3.1,0,5.6,2.5,5.6,5.7v22.6c0,3.1-2.5,5.7-5.6,5.7h-8.5c-3.1,0-5.7-2.5-5.7-5.7v-22.6
	c0-3.1,2.5-5.7,5.7-5.7H389.4z"/>
<path class="st1" d="M157.5,183.6h21.6v45.1c0,6.2-5,11.3-11.2,11.3h-10.3V183.6"/>
<path class="st1" d="M256.4,240.1c-6.2,0-11.4-5.1-11.4-11.3v-45.1h21.6v39.5c0,3.1,2.6,5.7,5.7,5.7h6.9c3.1,0,5.6-2.5,5.6-5.7
	v-39.5h50.1c6.2,0,11.3,5.1,11.3,11.3v45.1h-21.6v-39.6c0-3.1-2.5-5.6-5.7-5.6h-12.6v33.9c0,6.2-5,11.3-11.2,11.3H256.4"/>
<path class="st1" d="M125.8,164.2c-8.1,0-15.3,3.7-20.1,9.5l-55,66.4h31.2l41.7-50.3c3.1-3.7,7.8-6.1,13.1-6.1h11l-46.6,56.4h33.5
	c7.8,0,14.1-6.3,14.1-14.1v-61.7H125.8"/>
<path class="st1" d="M55,173.7L0,240.1h31.2L73,189.8c3.1-3.7,7.8-6.1,13.1-6.1h11.4v-19.4H75.1C67,164.2,59.8,167.9,55,173.7"/>
</svg>
