<?xml version="1.0" encoding="utf-8"?>
<!-- Generator: Adobe Illustrator 21.0.2, SVG Export Plug-In . SVG Version: 6.00 Build 0)  -->
<svg version="1.1" baseProfile="tiny" id="Layer_1" xmlns="http://www.w3.org/2000/svg" xmlns:xlink="http://www.w3.org/1999/xlink"
	 x="0px" y="0px" viewBox="0 0 490 98.5" xml:space="preserve">
<g>
	<path fill="#FFFFFF" d="M193.1,71.7L187,98.1h-3.2l6.1-26.4H193.1z"/>
	<path fill="#FFFFFF" d="M200.1,80.5l-0.6,2.5c0.7-0.8,2.8-3,6-3c2.4,0,5.1,1.5,5.1,4.5c0,0.7-0.1,1.4-0.4,3l-2.5,10.6h-2.9
		l2.5-10.8c0.2-0.9,0.3-1.5,0.3-2.1c0-1.3-0.7-2.8-3-2.8c-1,0-2.3,0.2-3.6,1.2c-1.5,1.2-2.1,2.8-2.9,5.8l-2,8.7h-2.9l4.1-17.6H200.1
		z"/>
	<path fill="#FFFFFF" d="M230.9,80.5L220,98.1H217l-1.8-17.6h2.8l1.2,14.5l8.5-14.5H230.9z"/>
	<path fill="#FFFFFF" d="M246.5,93.1c-1.8,4.5-5.9,5.4-8.4,5.4c-4.4,0-7.2-2.8-7.2-7.5c0-5.3,3.4-11,9.7-11c4.6,0,6.6,3,6.6,7.2
		c0,1-0.1,1.6-0.2,2.3h-13.2c0,0.5-0.1,0.9-0.1,1.3c0,4.5,3.4,5.3,5,5.3c0.7,0,1.3-0.1,1.9-0.4c2-0.7,2.7-2.2,3.1-3.2L246.5,93.1z
		 M244.3,87.4c0-0.3,0-0.5,0-0.8c0-2.9-2-4.4-3.9-4.4c-1.3,0-4.7,0.8-6,5.2H244.3z"/>
	<path fill="#FFFFFF" d="M252.6,91.6c-0.1,0.5-0.2,1-0.2,1.5c0,2.9,2.7,3.2,4.2,3.2c3.2,0,4.4-1.7,4.4-3.1c0-1.3-0.9-1.9-2.7-2.6
		l-3.1-1.2c-1.9-0.8-3.6-1.9-3.6-4.2c0-2.4,2-5.2,7-5.2c3.5,0,6.2,1.4,6.2,4.6c0,0.2,0,0.4,0,0.7l-2.8,0.5c0.1-0.6,0.1-0.7,0.1-1
		c0-1.2-1.1-2.6-3.4-2.6c-2.7,0-4,1.4-4,2.7c0,1.3,1.2,1.8,2.7,2.4l2.9,1.1c2.1,0.9,3.9,1.7,3.9,4.3c0,1.3-0.5,2.6-1.4,3.6
		c-1.9,2.1-4.6,2.2-6.3,2.2c-3.7,0-6.9-1.4-6.9-5.3c0-0.5,0.1-0.9,0.1-1.2L252.6,91.6z"/>
	<path fill="#FFFFFF" d="M274.4,80.5h3.1l-0.5,2.3h-3.1l-2.2,9.6c-0.1,0.6-0.4,1.8-0.4,2.3c0,0.9,0.7,1.1,1.3,1.1c0.3,0,0.5,0,2-0.3
		l-0.5,2.2c-0.9,0.4-1.8,0.5-2.8,0.5c-2.2,0-2.9-1.1-2.9-2.5c0-0.8,0.2-1.8,0.4-2.7l2.4-10.2h-2.8l0.5-2.3h2.8l1.3-5.5h2.8
		L274.4,80.5z"/>
	<path fill="#FFFFFF" d="M316.2,80.5l-10.2,17.6h-2.9L302,83.8l-7.7,14.3h-2.8l-1.8-17.6h2.8l1.2,14.4l7.5-14.4h2.9l1.3,14.4
		l7.8-14.4H316.2z"/>
	<path fill="#FFFFFF" d="M322.5,80.5l-4,17.6h-3l4.1-17.6H322.5z M323.8,75.1h-3.1l0.8-3.4h3.1L323.8,75.1z"/>
	<path fill="#FFFFFF" d="M331.2,80.5h3.1l-0.5,2.3h-3.1l-2.2,9.6c-0.1,0.6-0.4,1.8-0.4,2.3c0,0.9,0.7,1.1,1.3,1.1c0.3,0,0.5,0,2-0.3
		l-0.5,2.2c-0.9,0.4-1.8,0.5-2.8,0.5c-2.2,0-2.9-1.1-2.9-2.5c0-0.8,0.2-1.8,0.4-2.7l2.4-10.2h-2.8l0.5-2.3h2.8l1.3-5.5h2.8
		L331.2,80.5z"/>
	<path fill="#FFFFFF" d="M340.2,83.5l0.4-0.6c1.4-1.9,3.5-2.9,5.9-2.9c3,0,5,1.5,5,4.1c0,0.9-0.2,1.8-0.4,2.9l-2.5,11h-3l2.6-11.4
		c0.2-0.8,0.3-1.2,0.3-1.7c0-1.7-1.3-2.6-2.9-2.6c-1.6,0-3.2,0.7-4.3,1.9c-1.5,1.6-1.9,3.4-2.4,5.3l-1.9,8.4h-2.9l6.1-26.4h2.9
		L340.2,83.5z"/>
	<path fill="#FFFFFF" d="M378.6,93.8c-0.1,0.7-0.1,0.9-0.1,1.1c0,0.4,0.2,0.9,0.9,0.9c0.6,0,0.9-0.2,1.2-0.3l-0.6,2.4
		c-0.3,0.1-1,0.3-1.8,0.3c-2,0-2.6-1.3-2.6-2.2c0-0.2,0-0.3,0-0.5c-0.4,0.6-0.9,1.5-2.5,2.2c-1,0.4-2.3,0.7-3.6,0.7
		c-3.8,0-5.2-2.3-5.2-4.4c0-1.3,0.5-2.6,1.3-3.5c1.3-1.6,3.1-2.1,5.7-2.5c0.8-0.2,4.9-0.7,5.9-0.9c0.1-0.7,0.4-1.6,0.4-2.3
		c0-2.5-2.9-2.5-3.5-2.5c-3.5,0-4,2.3-4.3,3.6l-3.3-0.3c0.8-2.2,2.2-5.5,7.9-5.5c1.7,0,3.1,0.3,4.4,1.1c0.9,0.6,1.8,1.4,1.8,3.2
		c0,0.4-0.1,1.2-0.3,2.4L378.6,93.8z M376.7,89.5c-3.8,0.5-5.2,0.7-6.8,1.4c-0.5,0.2-2.2,1-2.2,3c0,1.6,1.4,2.4,3,2.4
		c1,0,2.8-0.4,3.8-1.3c1.2-1,1.5-2.4,1.8-3.3L376.7,89.5z"/>
	<path fill="#FFFFFF" d="M404.6,71.7l-6.1,26.4h-2.9l0.6-2.4c-1.4,1.8-3.1,2.7-5.5,2.7c-5.8,0-6.7-4.9-6.7-7.5
		c0-5,3.1-10.8,9.6-10.8c2,0,3.4,0.7,4,1.2c1,0.9,1.2,1.6,1.3,2.5l2.8-12.2H404.6z M393.7,82.5c-4.7,0-6.7,5-6.7,8.4
		c0,3.6,1.9,5.3,4.4,5.3c4.9,0,6.4-6,6.5-9C397.8,85.8,397.6,82.5,393.7,82.5z"/>
	<path fill="#FFFFFF" d="M421.6,80.5l-10.9,17.6h-3.1l-1.8-17.6h2.8l1.2,14.5l8.5-14.5H421.6z"/>
	<path fill="#FFFFFF" d="M427.8,80.5l-4,17.6h-3l4.1-17.6H427.8z M429.1,75.1H426l0.8-3.4h3.1L429.1,75.1z"/>
	<path fill="#FFFFFF" d="M445.9,92.7c-1.3,3-3.4,4.4-4,4.7c-1.7,0.9-3.4,1-4.5,1c-1.2,0-3-0.1-4.7-1.3c-2.7-1.9-2.8-5.1-2.8-6.1
		c0-5.7,3.7-11.1,9.8-11.1c4.4,0,6.6,2.5,6.9,5.3l-2.8,0.7c-0.3-1.2-0.9-3.6-4.2-3.6c-4.3,0-6.7,4.6-6.7,8.5c0,2.7,1.4,5.4,4.6,5.4
		c0.8,0,1.8-0.1,2.8-0.9c1.5-1,2-2.2,2.4-3.1L445.9,92.7z"/>
	<path fill="#FFFFFF" d="M464,93.1c-1.8,4.5-5.9,5.4-8.4,5.4c-4.4,0-7.2-2.8-7.2-7.5c0-5.3,3.4-11,9.7-11c4.6,0,6.6,3,6.6,7.2
		c0,1-0.1,1.6-0.2,2.3h-13.2c0,0.5-0.1,0.9-0.1,1.3c0,4.5,3.4,5.3,5,5.3c0.7,0,1.3-0.1,1.9-0.4c2-0.7,2.7-2.2,3.1-3.2L464,93.1z
		 M461.8,87.4c0-0.3,0-0.5,0-0.8c0-2.9-2-4.4-3.9-4.4c-1.3,0-4.7,0.8-6,5.2H461.8z"/>
	<path fill="#FFFFFF" d="M471.2,94l-0.8,4.1h-3.8l0.9-4.1H471.2z"/>
</g>
<g>
	<path fill="#FFFFFF" d="M483.4,26.9c-3.4,0-6.6-2.7-6.6-6.6c0-3.8,3-6.6,6.6-6.6c3.8,0,6.6,3,6.6,6.6C490,24,487.1,26.9,483.4,26.9
		z M483.5,14.3c-3.4,0-6,2.7-6,6c0,3.4,2.7,6,6,6c3.4,0,6-2.6,6-6C489.5,17,486.9,14.3,483.5,14.3z M483.4,16.1c0.9,0,1.4,0,1.9,0.2
		c0.9,0.3,1.3,1.1,1.3,1.9c0,1.1-0.6,1.7-1.7,2c0.7,0.3,1,0.6,1.2,1.7c0.2,1.3,0.3,1.7,0.6,2.5h-1.7c-0.1-0.1-0.2-0.4-0.3-1.1
		c0-0.2-0.2-1.1-0.2-1.3c-0.2-1.2-0.8-1.3-1.9-1.3h-0.5v3.7h-1.5v-8.3H483.4z M482.1,19.5h1.2c0.6,0,1.8,0,1.8-1.1
		c0-0.3-0.1-0.8-0.6-1c-0.3-0.1-0.5-0.1-1.5-0.1h-0.9V19.5z"/>
</g>
<g>
	<path fill="#FFFFFF" d="M335.2,21.7l-1.2,5.1h-24.2l-5.5,23.4h-6.2L309.6,0H342l-1.3,5.3h-26.1l-3.8,16.4H335.2z"/>
	<path fill="#FFFFFF" d="M369.7,16.8L362,50.2h-5.4l1.2-5.3c-1,1.2-2.1,2.5-4.2,3.8c-2.5,1.4-5.4,2.1-8,2.1c-5.4,0-9.2-3-9.2-7.8
		c0-1.3,0.1-2.1,1.1-6.3l4.5-20h5.6l-4.5,19.9c-0.7,3.6-0.8,4-0.8,5c0,0.8,0.1,1.6,0.5,2.3c0.7,1.2,2.6,2.4,5.4,2.4
		c2.1,0,4.5-0.6,6.4-1.8c4.2-2.6,5.1-7.3,6.4-12.9l3.4-14.8H369.7z"/>
	<path fill="#FFFFFF" d="M383.1,16.8l-1.1,4.8c1.4-1.5,5.3-5.7,11.4-5.7c4.6,0,9.7,2.8,9.7,8.5c0,1.3-0.2,2.6-0.8,5.6l-4.7,20.2
		h-5.5l4.8-20.6c0.4-1.8,0.5-2.8,0.5-3.9c0-2.5-1.3-5.3-5.8-5.3c-1.8,0-4.4,0.4-6.9,2.3c-2.9,2.3-4,5.3-5.5,11.1l-3.8,16.5h-5.6
		l7.7-33.4H383.1z"/>
	<path fill="#FFFFFF" d="M446.4,0l-11.6,50.2h-5.5l1.1-4.5c-2.7,3.5-6,5.2-10.5,5.2c-11.1,0-12.8-9.3-12.8-14.2
		c0-9.4,6-20.5,18.2-20.5c3.8,0,6.5,1.3,7.7,2.3c2,1.8,2.3,3.1,2.6,4.8L440.8,0H446.4z M425.6,20.5c-8.9,0-12.8,9.4-12.8,16
		c0,6.8,3.6,10,8.4,10c9.3,0,12.2-11.5,12.3-17.1C433.6,26.9,433.1,20.5,425.6,20.5z"/>
	<path fill="#FFFFFF" d="M448.9,37.8c-0.2,0.9-0.4,1.8-0.4,2.9c0,5.5,5.1,6.2,8,6.2c6.1,0,8.4-3.2,8.4-5.8c0-2.5-1.7-3.6-5.1-4.9
		l-5.8-2.3c-3.7-1.6-6.9-3.7-6.9-8c0-4.5,3.8-9.9,13.3-9.9c6.7,0,11.9,2.6,11.9,8.8c0,0.4-0.1,0.7-0.1,1.3l-5.4,0.9
		c0.1-1.1,0.2-1.3,0.2-1.9c0-2.3-2.1-5-6.5-5c-5.1,0-7.5,2.7-7.5,5c0,2.6,2.2,3.4,5,4.5l5.5,2.1c4,1.7,7.4,3.2,7.4,8.2
		c0,2.4-0.9,4.9-2.7,6.9c-3.5,4-8.7,4.2-12,4.2C449,51,443,48.4,443,41c0-1,0.1-1.6,0.2-2.3L448.9,37.8z"/>
</g>
<g>
	<path fill="#FFFFFF" d="M11.4,0.1h18.7c2.2,0,6.3,0.3,9.8,1.4C50.6,5.1,51.4,15,51.4,19.9c0,9.1-3.3,18.2-9.8,23.9
		c-7,6.2-16,6.5-25.1,6.5H0L11.4,0.1z M21.4,9.7l-7,30.9h5.5c3.2-0.1,7-0.1,10.1-2c3.8-2.2,8.7-9.1,8.7-18.6c0-2.7-0.4-5.8-3.1-8.1
		c-2.4-2.1-5.2-2.1-8-2.2H21.4z"/>
	<path fill="#FFFFFF" d="M92.4,13.6L68.6,54.2c-3.5,5.6-6.2,9.1-15.5,9.1c-1.8,0-3.6-0.1-5.5-0.3l1.9-8.9c1.3,0.2,2.6,0.5,3.8,0.5
		c3.4,0,4.6-1.4,5.6-2.7l-3.8-38.3h11.1l1.1,25.6l12.9-25.6H92.4z"/>
	<path fill="#FFFFFF" d="M119.7,50.2h-10.9l4.8-21.5c0.2-1.2,0.4-2.3,0.4-3.4c0-3.4-2.8-4.1-4.1-4.1c-1.7,0-3.3,0.9-4.4,2
		c-1.8,1.8-2.7,4.7-3.3,7.6l-4.5,19.5H86.7L95,13.6h11l-1.1,4.4c1.8-2,5-5.3,10.7-5.3c5.5,0,10.1,3.3,10.1,9.5c0,1.3-0.3,2.7-0.5,4
		L119.7,50.2z"/>
	<path fill="#FFFFFF" d="M150.2,50.2c-0.1-0.6-0.4-1.1-0.4-1.6c0-0.4,0.6-2.8,0.6-3.5c-0.8,1.4-1.3,2.4-3.3,3.7
		c-3.3,2.3-6.8,2.5-8.8,2.5c-10.8,0-11.1-9-11.1-10.3c0-2.4,0.8-4.8,2.1-6.7c4.3-6.1,12.3-6.5,24.8-7.2c0.4-1.3,0.7-2.8,0.7-3.8
		c0-3.5-3.6-3.8-5-3.8c-5,0-6,3.3-6.5,5.2l-10.9-0.4c1-3.1,1.9-6,5.3-8.4c4-3,9.2-3.3,13.4-3.3c2.9,0,14.6,0,14.6,10.1
		c0,1.8-0.3,3.5-0.7,5.2l-4.3,19.2c-0.1,0.6-0.3,1.1-0.3,1.8c0,0.5,0.1,1,0.3,1.6H150.2z M139.7,36.8c-0.8,0.8-1.3,1.7-1.3,2.9
		c0,3.7,3.5,3.8,4.5,3.8c2.2,0,4-0.8,5.1-1.6c3.1-2.2,4-5.5,4.6-8.1C148.8,33.9,142.6,33.9,139.7,36.8z"/>
	<path fill="#FFFFFF" d="M185.2,18.8c1.8-2.3,4.9-6.2,11.4-6.2c6.7,0,8.7,4.3,9.4,5.8c1.7-2.1,4.8-5.8,11.1-5.8
		c4,0,10.6,2.2,10.6,9.7c0,2.2-0.6,4.7-1.1,7l-4.6,20.9h-11l4.7-20.5c0.4-1.6,0.9-3.8,0.9-4.7c0-2-1.3-4-4.3-4c-2.1,0-4,1.2-5.2,2.6
		c-1.2,1.4-1.8,3.7-2.2,5.5l-5,21.1h-11l5-21.7c0.3-1.3,0.6-2.4,0.6-3.7c0-3.1-2.6-3.8-4.2-3.8c-2.1,0-4.2,1.3-5.4,2.8
		c-0.9,1.2-1.7,3.2-2,4.4l-5.1,22h-11.1l8.4-36.6h11.1L185.2,18.8z"/>
	<path fill="#FFFFFF" d="M248.5,13.6l-8.3,36.6h-11l8.3-36.6H248.5z M251.6,0.1l-1.8,8.3h-11l1.9-8.3H251.6z"/>
	<path fill="#FFFFFF" d="M285.2,39.5c-1.8,3.3-3.8,7.2-9.4,9.9c-2.9,1.3-6,1.9-8.7,1.9c-10.4,0-18.1-7-18.1-17.4
		c0-9.2,7-21.4,21.5-21.4c3.5,0,6.9,0.9,9.8,2.6c4.5,2.8,5.7,6.2,7,9.8l-9.8,2.2c-0.5-1.8-1.6-6-7.2-6c-6.9,0-10,8.3-10,13.3
		c0,5.3,2.9,8.2,7.5,8.2c4.8,0,6.5-3.7,7.5-6L285.2,39.5z"/>
</g>
<g>
</g>
<g>
</g>
<g>
</g>
<g>
</g>
<g>
</g>
<g>
</g>
</svg>
