<?xml version="1.0" encoding="utf-8"?>
<!-- Generator: Adobe Illustrator 16.0.3, SVG Export Plug-In . SVG Version: 6.00 Build 0)  -->
<!DOCTYPE svg PUBLIC "-//W3C//DTD SVG 1.1 Tiny//EN" "http://www.w3.org/Graphics/SVG/1.1/DTD/svg11-tiny.dtd">
<svg version="1.1" baseProfile="tiny" id="Layer_1" xmlns="http://www.w3.org/2000/svg" xmlns:xlink="http://www.w3.org/1999/xlink"
	 x="0px" y="0px" width="116px" height="23px" viewBox="0 0 116 23" xml:space="preserve">
<g>
	<path fill="#276092" d="M45.609,16.746l-1.402,6.072h-0.74l1.401-6.072H45.609z"/>
	<path fill="#276092" d="M47.235,18.768l-0.138,0.586c0.171-0.182,0.645-0.688,1.384-0.688c0.559,0,1.17,0.334,1.17,1.033
		c0,0.154-0.026,0.316-0.094,0.68l-0.568,2.439h-0.67l0.576-2.492c0.051-0.217,0.061-0.344,0.061-0.473
		c0-0.301-0.164-0.645-0.698-0.645c-0.223,0-0.533,0.041-0.833,0.273c-0.354,0.283-0.491,0.646-0.663,1.342l-0.464,1.994h-0.68
		l0.938-4.051H47.235z"/>
	<path fill="#276092" d="M54.323,18.768l-2.503,4.051h-0.706l-0.405-4.051h0.637l0.275,3.348l1.962-3.348H54.323z"/>
	<path fill="#276092" d="M57.918,21.676c-0.422,1.041-1.36,1.24-1.945,1.24c-1.005,0-1.66-0.646-1.66-1.723
		c0-1.219,0.783-2.527,2.245-2.527c1.058,0,1.522,0.695,1.522,1.66c0,0.24-0.025,0.377-0.051,0.533h-3.037
		c-0.008,0.111-0.018,0.195-0.018,0.301c0,1.031,0.783,1.229,1.144,1.229c0.155,0,0.302-0.025,0.439-0.086
		c0.464-0.172,0.62-0.516,0.723-0.736L57.918,21.676z M57.41,20.367c0.009-0.066,0.009-0.119,0.009-0.18
		c0-0.67-0.456-1.006-0.904-1.006c-0.301,0-1.075,0.18-1.394,1.186H57.41z"/>
	<path fill="#276092" d="M59.328,21.314c-0.025,0.111-0.051,0.225-0.051,0.354c0,0.672,0.619,0.748,0.963,0.748
		c0.739,0,1.023-0.387,1.023-0.705c0-0.301-0.206-0.439-0.619-0.594l-0.705-0.275c-0.447-0.189-0.834-0.447-0.834-0.963
		c0-0.551,0.464-1.205,1.616-1.205c0.809,0,1.437,0.318,1.437,1.066c0,0.053-0.008,0.086-0.008,0.156l-0.654,0.111
		c0.018-0.129,0.025-0.164,0.025-0.232c0-0.285-0.258-0.604-0.791-0.604c-0.62,0-0.912,0.328-0.912,0.613
		c0,0.309,0.267,0.41,0.61,0.549l0.663,0.258c0.481,0.207,0.895,0.389,0.895,0.99c0,0.291-0.112,0.594-0.327,0.834
		c-0.43,0.48-1.059,0.508-1.453,0.508c-0.859,0-1.592-0.326-1.592-1.223c0-0.119,0.018-0.197,0.027-0.275L59.328,21.314z"/>
	<path fill="#276092" d="M64.344,18.768h0.713l-0.12,0.527h-0.713l-0.517,2.217c-0.034,0.139-0.095,0.406-0.095,0.525
		c0,0.217,0.163,0.25,0.301,0.25c0.078,0,0.112-0.01,0.465-0.07l-0.121,0.508c-0.197,0.086-0.422,0.121-0.645,0.121
		c-0.499,0-0.671-0.248-0.671-0.568c0-0.188,0.043-0.412,0.094-0.627l0.542-2.355h-0.644l0.119-0.527h0.646l0.293-1.27h0.645
		L64.344,18.768z"/>
	<path fill="#276092" d="M73.985,18.768l-2.349,4.051h-0.662L70.7,19.518l-1.764,3.301h-0.654l-0.404-4.051h0.655l0.265,3.314
		l1.729-3.314h0.663l0.292,3.314l1.788-3.314H73.985z"/>
	<path fill="#276092" d="M75.431,18.768l-0.929,4.051h-0.688l0.937-4.051H75.431z M75.731,17.523h-0.705l0.181-0.777h0.705
		L75.731,17.523z"/>
	<path fill="#276092" d="M77.435,18.768h0.713l-0.119,0.527h-0.714l-0.517,2.217c-0.035,0.139-0.094,0.406-0.094,0.525
		c0,0.217,0.162,0.25,0.3,0.25c0.078,0,0.111-0.01,0.465-0.07l-0.12,0.508c-0.197,0.086-0.422,0.121-0.645,0.121
		c-0.499,0-0.671-0.248-0.671-0.568c0-0.188,0.042-0.412,0.095-0.627l0.541-2.355h-0.645l0.12-0.527h0.646l0.292-1.27h0.645
		L77.435,18.768z"/>
	<path fill="#276092" d="M79.507,19.459l0.086-0.131c0.318-0.43,0.817-0.662,1.351-0.662c0.688,0,1.144,0.352,1.144,0.955
		c0,0.205-0.043,0.42-0.095,0.66l-0.584,2.537h-0.68l0.602-2.611c0.043-0.191,0.061-0.285,0.061-0.396
		c0-0.396-0.292-0.594-0.662-0.594c-0.379,0-0.739,0.164-0.998,0.445c-0.344,0.379-0.438,0.775-0.55,1.232l-0.447,1.924h-0.672
		l1.403-6.08h0.671L79.507,19.459z"/>
	<path fill="#276092" d="M88.358,21.824c-0.034,0.172-0.034,0.213-0.034,0.248c0,0.104,0.043,0.215,0.206,0.215
		c0.129,0,0.215-0.033,0.274-0.061l-0.128,0.559c-0.068,0.018-0.224,0.061-0.404,0.061c-0.455,0-0.595-0.301-0.595-0.498
		c0-0.045,0.009-0.078,0.009-0.121c-0.095,0.146-0.213,0.354-0.584,0.516c-0.232,0.104-0.525,0.162-0.826,0.162
		c-0.886,0-1.203-0.531-1.203-1.004c0-0.293,0.111-0.592,0.301-0.809c0.292-0.361,0.722-0.475,1.308-0.568
		c0.188-0.033,1.136-0.164,1.35-0.205c0.035-0.164,0.086-0.381,0.086-0.533c0-0.584-0.671-0.584-0.8-0.584
		c-0.808,0-0.929,0.531-0.979,0.822l-0.767-0.068c0.181-0.496,0.5-1.264,1.814-1.264c0.396,0,0.705,0.061,1.007,0.258
		c0.198,0.129,0.412,0.328,0.412,0.73c0,0.105-0.017,0.285-0.077,0.553L88.358,21.824z M87.911,20.834
		c-0.87,0.111-1.195,0.154-1.573,0.326c-0.121,0.051-0.517,0.225-0.517,0.68c0,0.377,0.326,0.559,0.688,0.559
		c0.223,0,0.636-0.104,0.885-0.309c0.283-0.242,0.353-0.541,0.404-0.766L87.911,20.834z"/>
	<path fill="#276092" d="M94.327,16.738l-1.41,6.08h-0.662l0.128-0.549c-0.325,0.422-0.722,0.627-1.271,0.627
		c-1.343,0-1.548-1.127-1.548-1.719c0-1.143,0.722-2.486,2.21-2.486c0.456,0,0.79,0.162,0.928,0.283
		c0.242,0.217,0.276,0.379,0.311,0.578l0.645-2.814H94.327z M91.816,19.225c-1.076,0-1.548,1.143-1.548,1.936
		c0,0.826,0.439,1.213,1.015,1.213c1.127,0,1.479-1.393,1.487-2.072C92.78,20,92.719,19.225,91.816,19.225z"/>
	<path fill="#276092" d="M98.249,18.768l-2.501,4.051h-0.706l-0.405-4.051h0.637l0.275,3.348l1.962-3.348H98.249z"/>
	<path fill="#276092" d="M99.678,18.768l-0.929,4.051h-0.688l0.938-4.051H99.678z M99.979,17.523h-0.704l0.181-0.777h0.704
		L99.979,17.523z"/>
	<path fill="#276092" d="M103.841,21.59c-0.293,0.697-0.782,1.008-0.929,1.094c-0.388,0.213-0.791,0.232-1.031,0.232
		c-0.267,0-0.697-0.027-1.075-0.303c-0.62-0.438-0.637-1.17-0.637-1.402c0-1.314,0.851-2.545,2.261-2.545
		c1.016,0,1.531,0.576,1.584,1.223l-0.638,0.152c-0.06-0.266-0.206-0.824-0.972-0.824c-0.98,0-1.539,1.064-1.539,1.951
		c0,0.629,0.325,1.248,1.067,1.248c0.18,0,0.403-0.035,0.651-0.199c0.345-0.221,0.456-0.498,0.542-0.721L103.841,21.59z"/>
	<path fill="#276092" d="M108.029,21.676c-0.421,1.041-1.357,1.24-1.943,1.24c-1.006,0-1.66-0.646-1.66-1.723
		c0-1.219,0.782-2.527,2.246-2.527c1.058,0,1.521,0.695,1.521,1.66c0,0.24-0.025,0.377-0.051,0.533h-3.037
		c-0.008,0.111-0.018,0.195-0.018,0.301c0,1.031,0.783,1.229,1.145,1.229c0.154,0,0.3-0.025,0.439-0.086
		c0.463-0.172,0.618-0.516,0.722-0.736L108.029,21.676z M107.522,20.367c0.009-0.066,0.009-0.119,0.009-0.18
		c0-0.67-0.456-1.006-0.903-1.006c-0.302,0-1.076,0.18-1.394,1.186H107.522z"/>
	<path fill="#276092" d="M109.682,21.873l-0.189,0.945h-0.869l0.198-0.945H109.682z"/>
</g>
<g>
	<path fill="#3BB0C9" d="M112.494,6.414c-0.79,0-1.515-0.618-1.515-1.513c0-0.878,0.695-1.522,1.515-1.522
		c0.882,0,1.524,0.695,1.521,1.526C114.013,5.746,113.351,6.414,112.494,6.414z M112.503,3.516c-0.78,0-1.387,0.623-1.387,1.386
		c0,0.771,0.623,1.376,1.382,1.376c0.776,0,1.377-0.609,1.381-1.372C113.883,4.146,113.291,3.516,112.503,3.516z M112.477,3.93
		c0.195,0,0.327,0.004,0.447,0.046c0.206,0.072,0.308,0.26,0.308,0.443c0,0.243-0.149,0.392-0.393,0.456
		c0.154,0.068,0.229,0.141,0.272,0.401c0.043,0.29,0.06,0.396,0.145,0.566h-0.388c-0.017-0.029-0.046-0.097-0.076-0.264
		c-0.009-0.042-0.038-0.248-0.047-0.293c-0.051-0.274-0.184-0.294-0.431-0.299h-0.12v0.856h-0.34V3.93H112.477z M112.199,4.714
		h0.282c0.136,0,0.408,0.004,0.408-0.265c0-0.072-0.028-0.179-0.136-0.227c-0.068-0.029-0.111-0.029-0.337-0.029h-0.218V4.714z"/>
</g>
<g>
	<path fill="#3BB0C9" d="M78.349,5.214L78.07,6.391h-5.576l-1.259,5.397h-1.439l2.665-11.562h7.457l-0.294,1.21h-6.002l-0.867,3.777
		H78.349z"/>
	<path fill="#3BB0C9" d="M86.298,4.086l-1.768,7.702h-1.243l0.278-1.209c-0.229,0.277-0.474,0.572-0.965,0.866
		c-0.572,0.328-1.243,0.491-1.847,0.491c-1.243,0-2.126-0.687-2.126-1.798c0-0.312,0.031-0.475,0.245-1.457l1.046-4.595h1.291
		l-1.046,4.578c-0.163,0.835-0.181,0.933-0.181,1.146c0,0.179,0.033,0.358,0.116,0.522c0.163,0.279,0.588,0.557,1.242,0.557
		c0.474,0,1.029-0.147,1.472-0.425c0.965-0.606,1.177-1.685,1.472-2.976l0.784-3.402H86.298z"/>
	<path fill="#3BB0C9" d="M89.389,4.086l-0.261,1.112c0.326-0.344,1.226-1.309,2.631-1.309c1.063,0,2.226,0.637,2.226,1.961
		c0,0.294-0.05,0.606-0.181,1.293l-1.08,4.644h-1.274l1.096-4.743c0.099-0.409,0.114-0.654,0.114-0.9
		c0-0.572-0.312-1.227-1.325-1.227c-0.425,0-1.014,0.082-1.586,0.524c-0.67,0.539-0.933,1.227-1.259,2.551l-0.884,3.794h-1.291
		l1.781-7.702H89.389z"/>
	<path fill="#3BB0C9" d="M103.96,0.226l-2.683,11.562h-1.258l0.245-1.046c-0.622,0.801-1.373,1.193-2.421,1.193
		c-2.552,0-2.944-2.142-2.944-3.271c0-2.174,1.375-4.726,4.203-4.726c0.867,0,1.505,0.312,1.767,0.54
		c0.458,0.409,0.523,0.72,0.588,1.095l1.228-5.347H103.96z M99.184,4.953c-2.042,0-2.943,2.174-2.943,3.678
		c0,1.571,0.835,2.307,1.932,2.307c2.142,0,2.812-2.65,2.829-3.942C101.017,6.425,100.902,4.953,99.184,4.953z"/>
	<path fill="#3BB0C9" d="M104.533,8.926c-0.049,0.213-0.099,0.426-0.099,0.671c0,1.275,1.178,1.423,1.832,1.423
		c1.406,0,1.945-0.736,1.945-1.341c0-0.572-0.393-0.834-1.178-1.128l-1.34-0.524c-0.851-0.359-1.587-0.85-1.587-1.832
		c0-1.046,0.884-2.289,3.075-2.289c1.537,0,2.731,0.604,2.731,2.027c0,0.099-0.017,0.164-0.017,0.295l-1.243,0.212
		c0.033-0.246,0.049-0.31,0.049-0.441c0-0.54-0.491-1.145-1.504-1.145c-1.177,0-1.734,0.622-1.734,1.161
		c0,0.588,0.509,0.784,1.161,1.046l1.26,0.491c0.915,0.392,1.701,0.736,1.701,1.881c0,0.556-0.213,1.128-0.622,1.586
		c-0.817,0.916-2.012,0.964-2.764,0.964c-1.635,0-3.025-0.622-3.025-2.322c0-0.229,0.032-0.376,0.049-0.523L104.533,8.926z"/>
</g>
<g>
	<path fill="#276092" d="M3.757,0.242h4.318c0.506,0,1.456,0.065,2.256,0.327c2.471,0.834,2.65,3.124,2.65,4.236
		c0,2.093-0.769,4.187-2.258,5.495c-1.619,1.439-3.695,1.488-5.772,1.488H1.14L3.757,0.242z M6.063,2.449L4.46,9.563H5.72
		c0.736-0.016,1.619-0.032,2.322-0.458c0.884-0.506,1.995-2.093,1.995-4.285c0-0.621-0.082-1.341-0.702-1.864
		c-0.557-0.474-1.194-0.49-1.848-0.507H6.063z"/>
	<path fill="#276092" d="M22.434,3.365l-5.495,9.355c-0.817,1.291-1.422,2.094-3.564,2.094c-0.426,0-0.834-0.035-1.26-0.066
		l0.441-2.045c0.295,0.051,0.589,0.115,0.884,0.115c0.785,0,1.063-0.326,1.292-0.621l-0.868-8.832h2.552l0.261,5.904l2.961-5.904
		H22.434z"/>
	<path fill="#276092" d="M28.714,11.787h-2.518l1.096-4.955c0.049-0.278,0.099-0.523,0.099-0.785c0-0.785-0.638-0.948-0.948-0.948
		c-0.393,0-0.752,0.196-1.013,0.457c-0.41,0.409-0.622,1.08-0.77,1.751l-1.03,4.479H21.11l1.914-8.422h2.535l-0.246,1.014
		c0.426-0.458,1.161-1.227,2.454-1.227c1.276,0,2.322,0.753,2.322,2.192c0,0.31-0.065,0.621-0.115,0.932L28.714,11.787z"/>
	<path fill="#276092" d="M35.748,11.787c-0.032-0.13-0.082-0.244-0.082-0.376c0-0.098,0.131-0.638,0.147-0.801
		c-0.179,0.327-0.311,0.557-0.753,0.852c-0.768,0.523-1.569,0.572-2.028,0.572c-2.486,0-2.55-2.077-2.55-2.372
		c0-0.556,0.18-1.111,0.491-1.553c0.997-1.407,2.829-1.504,5.708-1.668c0.082-0.295,0.163-0.654,0.163-0.884
		c0-0.801-0.834-0.866-1.161-0.866c-1.144,0-1.374,0.751-1.505,1.193l-2.518-0.082c0.229-0.719,0.441-1.373,1.209-1.945
		c0.917-0.687,2.126-0.769,3.092-0.769c0.67,0,3.369,0,3.369,2.322c0,0.409-0.065,0.801-0.164,1.194l-0.981,4.415
		c-0.032,0.131-0.064,0.262-0.064,0.409c0,0.115,0.032,0.229,0.064,0.359H35.748z M33.311,8.698c-0.18,0.179-0.293,0.392-0.293,0.67
		c0,0.85,0.8,0.866,1.046,0.866c0.507,0,0.916-0.18,1.178-0.359c0.72-0.507,0.916-1.26,1.063-1.865
		C35.404,8.026,33.998,8.042,33.311,8.698z"/>
	<path fill="#276092" d="M43.794,4.56c0.425-0.54,1.128-1.439,2.632-1.439c1.554,0,2.012,0.981,2.176,1.341
		C48.995,3.97,49.698,3.12,51.17,3.12c0.917,0,2.438,0.507,2.438,2.24c0,0.508-0.132,1.08-0.246,1.619l-1.063,4.808h-2.535
		l1.08-4.726c0.082-0.359,0.196-0.882,0.196-1.079c0-0.458-0.295-0.917-0.98-0.917c-0.491,0-0.933,0.279-1.194,0.589
		c-0.279,0.327-0.409,0.85-0.508,1.276l-1.145,4.856h-2.535l1.145-5.004c0.065-0.294,0.147-0.555,0.147-0.85
		c0-0.719-0.605-0.883-0.965-0.883c-0.474,0-0.964,0.295-1.242,0.654c-0.196,0.278-0.394,0.736-0.458,1.014l-1.177,5.069h-2.552
		l1.93-8.422h2.551L43.794,4.56z"/>
	<path fill="#276092" d="M58.383,3.365l-1.914,8.422h-2.535l1.914-8.422H58.383z M59.087,0.242l-0.426,1.914h-2.535l0.442-1.914
		H59.087z"/>
	<path fill="#276092" d="M66.838,9.318c-0.408,0.751-0.884,1.668-2.159,2.273c-0.67,0.312-1.374,0.442-2.011,0.442
		c-2.404,0-4.171-1.619-4.171-4.007c0-2.109,1.603-4.939,4.956-4.939c0.801,0,1.587,0.196,2.256,0.605
		c1.03,0.637,1.31,1.439,1.603,2.257l-2.257,0.506c-0.114-0.409-0.376-1.39-1.651-1.39c-1.586,0-2.305,1.913-2.305,3.058
		c0,1.227,0.67,1.881,1.717,1.881c1.111,0,1.487-0.85,1.732-1.39L66.838,9.318z"/>
</g>
</svg>
